<?xml version="1.0"?>
<svg xmlns="http://www.w3.org/2000/svg" viewBox="0 0 50 50">
    <path d="M 25 2 C 12.297 2 2 12.297 2 25 C 2 37.703 12.297 48 25 48 C 37.703 48 48 37.703 48 25 C 48 12.297 37.703 2 25 2 z M 25 4 C 34.494 4 42.525234 10.337 45.115234 19 L 43.013672 19 C 42.294672 16.849 41.198594 14.872625 39.808594 13.140625 C 38.500594 13.750625 37.045078 14.281078 35.455078 14.705078 C 35.888078 16.062078 36.246 17.495 36.5 19 L 34.476562 19 C 34.236562 17.651 33.910531 16.370156 33.519531 15.160156 C 31.167531 15.644156 28.616 15.918563 26 15.976562 L 26 19 L 24 19 L 24 15.976562 C 21.386 15.918563 18.835422 15.642203 16.482422 15.158203 C 16.090422 16.369203 15.763438 17.651953 15.523438 19.001953 L 13.501953 19.001953 C 13.755953 17.495953 14.113875 16.061125 14.546875 14.703125 C 12.955875 14.279125 11.496453 13.751578 10.189453 13.142578 C 8.8004531 14.873578 7.7053281 16.849 6.9863281 19 L 4.8847656 19 C 7.4747656 10.337 15.506 4 25 4 z M 24 6.1035156 C 22.756 6.3445156 21.554016 7.0319688 20.416016 8.1679688 C 19.133016 9.4499688 18.046594 11.204672 17.183594 13.263672 C 19.318594 13.683672 21.628 13.921563 24 13.976562 L 24 6.1035156 z M 26 6.1035156 L 26 13.976562 C 28.374 13.921563 30.681406 13.681719 32.816406 13.261719 C 31.944406 11.180719 30.843016 9.412 29.541016 8.125 C 28.416016 7.014 27.228 6.3425156 26 6.1035156 z M 18.707031 7.0820312 C 16.002031 8.0370312 13.578844 9.590125 11.589844 11.578125 C 12.697844 12.055125 13.910609 12.475359 15.224609 12.818359 C 16.144609 10.540359 17.317031 8.5700313 18.707031 7.0820312 z M 31.287109 7.0820312 C 32.680109 8.5710312 33.853391 10.539359 34.775391 12.818359 C 36.089391 12.475359 37.304109 12.057078 38.412109 11.580078 C 36.421109 9.5900781 33.995109 8.0370312 31.287109 7.0820312 z M 4 21 L 6.0996094 21 L 7.6308594 26.494141 L 9.4863281 21 L 11.925781 21 L 13.705078 26.587891 L 15.265625 21 L 17.328125 21 L 14.863281 29 L 12.6875 29 L 10.664062 23.019531 L 8.6484375 29 L 6.4257812 29 L 4 21 z M 18.335938 21 L 20.433594 21 L 21.964844 26.494141 L 23.822266 21 L 26.261719 21 L 28.041016 26.587891 L 29.599609 21 L 31.664062 21 L 29.199219 29 L 27.023438 29 L 25 23.019531 L 22.984375 29 L 20.759766 29 L 18.335938 21 z M 32.621094 21 L 34.728516 21 L 36.265625 26.494141 L 38.128906 21 L 40.576172 21 L 42.363281 26.587891 L 43.927734 21 L 46 21 L 43.523438 29 L 41.341797 29 L 39.310547 23.019531 L 37.287109 29 L 35.054688 29 L 32.621094 21 z M 34.476562 30.998047 L 36.498047 30.998047 C 36.244047 32.504047 35.886125 33.938875 35.453125 35.296875 C 37.044125 35.720875 38.503547 36.248422 39.810547 36.857422 C 41.199547 35.125422 42.295672 33.148047 43.013672 30.998047 L 45.115234 30.998047 C 42.525234 39.662047 34.494 46 25 46 C 15.506 46 7.4747656 39.663 4.8847656 31 L 6.9863281 31 C 7.7053281 33.151 8.8014062 35.127375 10.191406 36.859375 C 11.499406 36.249375 12.954922 35.718922 14.544922 35.294922 C 14.111922 33.937922 13.754 32.505 13.5 31 L 15.523438 31 C 15.763438 32.349 16.089469 33.629844 16.480469 34.839844 C 18.832469 34.355844 21.384 34.081437 24 34.023438 L 24 31 L 26 31 L 26 34.023438 C 28.614 34.081437 31.164578 34.357797 33.517578 34.841797 C 33.909578 33.630797 34.236563 32.348047 34.476562 30.998047 z M 24 36.023438 C 21.637 36.078437 19.34275 36.316422 17.21875 36.732422 C 18.86575 40.646422 21.289 43.352531 24 43.894531 L 24 36.023438 z M 26 36.023438 L 26 43.894531 C 27.244 43.653531 28.445984 42.966078 29.583984 41.830078 C 30.866984 40.549078 31.953406 38.795328 32.816406 36.736328 C 30.681406 36.316328 28.372 36.078438 26 36.023438 z M 34.775391 37.181641 C 33.855391 39.459641 32.682969 41.429969 31.292969 42.917969 C 33.997969 41.962969 36.421156 40.409875 38.410156 38.421875 C 37.302156 37.944875 36.089391 37.524641 34.775391 37.181641 z M 15.193359 37.189453 C 13.892359 37.530453 12.684937 37.943016 11.585938 38.416016 C 13.560937 40.391016 15.964438 41.937531 18.648438 42.894531 C 17.281437 41.424531 16.114359 39.475453 15.193359 37.189453 z"/>
</svg>
